<svg width="50" height="51" viewBox="0 0 50 51" fill="none" xmlns="http://www.w3.org/2000/svg">
<path id="Vector" fill-rule="evenodd" clip-rule="evenodd" d="M0 10.4258C0 7.77362 1.05357 5.23008 2.92894 3.35472C4.8043 1.47935 7.34784 0.425781 10 0.425781H40C42.6521 0.425781 45.1957 1.47935 47.0711 3.35472C48.9464 5.23008 50 7.77362 50 10.4258V40.4258C50 43.0779 48.9464 45.6215 47.0711 47.4969C45.1957 49.3722 42.6521 50.4258 40 50.4258H10C7.34784 50.4258 4.8043 49.3722 2.92894 47.4969C1.05357 45.6215 0 43.0779 0 40.4258V10.4258ZM10 5.42578C8.67391 5.42578 7.40215 5.95257 6.46446 6.89024C5.52679 7.82793 5 9.09969 5 10.4258V40.4258C5 41.7519 5.52679 43.0237 6.46446 43.9613C7.40215 44.899 8.67391 45.4258 10 45.4258H25V27.9258H22.5C21.837 27.9258 21.2011 27.6624 20.7323 27.1935C20.2634 26.7247 20 26.0888 20 25.4258C20 24.7628 20.2634 24.1269 20.7323 23.658C21.2011 23.1892 21.837 22.9258 22.5 22.9258H25V19.1758C25 16.8552 25.9219 14.6295 27.5629 12.9887C29.2038 11.3477 31.4294 10.4258 33.75 10.4258H35.25C35.913 10.4258 36.5489 10.6892 37.0177 11.158C37.4866 11.6269 37.75 12.2627 37.75 12.9258C37.75 13.5888 37.4866 14.2247 37.0177 14.6935C36.5489 15.1624 35.913 15.4258 35.25 15.4258H33.75C33.2575 15.4258 32.7699 15.5228 32.3149 15.7113C31.86 15.8997 31.4466 16.1759 31.0984 16.5242C30.7501 16.8724 30.4739 17.2858 30.2855 17.7407C30.097 18.1957 30 18.6833 30 19.1758V22.9258H35.25C35.913 22.9258 36.5489 23.1892 37.0177 23.658C37.4866 24.1269 37.75 24.7628 37.75 25.4258C37.75 26.0888 37.4866 26.7247 37.0177 27.1935C36.5489 27.6624 35.913 27.9258 35.25 27.9258H30V45.4258H40C41.3261 45.4258 42.5979 44.899 43.5355 43.9613C44.4733 43.0237 45 41.7519 45 40.4258V10.4258C45 9.09969 44.4733 7.82793 43.5355 6.89024C42.5979 5.95257 41.3261 5.42578 40 5.42578H10Z" fill="#B0B0B0"/>
</svg>
