<svg width="50" height="51" viewBox="0 0 50 51" fill="none" xmlns="http://www.w3.org/2000/svg">
<path id="Vector" fill-rule="evenodd" clip-rule="evenodd" d="M0 10.4258C0 7.77362 1.05357 5.23008 2.92894 3.35472C4.8043 1.47935 7.34784 0.425781 10 0.425781H40C42.6521 0.425781 45.1958 1.47935 47.0711 3.35472C48.9464 5.23008 50 7.77362 50 10.4258V40.4258C50 43.0779 48.9464 45.6215 47.0711 47.4969C45.1958 49.3722 42.6521 50.4258 40 50.4258H10C7.34784 50.4258 4.8043 49.3722 2.92894 47.4969C1.05357 45.6215 0 43.0779 0 40.4258V10.4258ZM10 5.42578C8.67391 5.42578 7.40215 5.95257 6.46446 6.89024C5.52679 7.82793 5 9.09969 5 10.4258V40.4258C5 41.7519 5.52679 43.0237 6.46446 43.9613C7.40215 44.899 8.67391 45.4258 10 45.4258H40C41.3261 45.4258 42.5979 44.899 43.5355 43.9613C44.4733 43.0237 45 41.7519 45 40.4258V10.4258C45 9.09969 44.4733 7.82793 43.5355 6.89024C42.5979 5.95257 41.3261 5.42578 40 5.42578H10ZM25 17.9258C23.0109 17.9258 21.1033 18.7159 19.6968 20.1225C18.2901 21.529 17.5 23.4367 17.5 25.4258C17.5 27.4149 18.2901 29.3225 19.6968 30.729C21.1033 32.1357 23.0109 32.9258 25 32.9258C26.9891 32.9258 28.8967 32.1357 30.3032 30.729C31.7099 29.3225 32.5 27.4149 32.5 25.4258C32.5 23.4367 31.7099 21.529 30.3032 20.1225C28.8967 18.7159 26.9891 17.9258 25 17.9258ZM12.5 25.4258C12.5 22.1105 13.817 18.9312 16.1611 16.5869C18.5054 14.2428 21.6848 12.9258 25 12.9258C28.3153 12.9258 31.4946 14.2428 33.8389 16.5869C36.183 18.9312 37.5 22.1105 37.5 25.4258C37.5 28.741 36.183 31.9204 33.8389 34.2647C31.4946 36.6088 28.3153 37.9258 25 37.9258C21.6848 37.9258 18.5054 36.6088 16.1611 34.2647C13.817 31.9204 12.5 28.741 12.5 25.4258ZM38.75 15.4258C39.7445 15.4258 40.6984 15.0307 41.4016 14.3274C42.1049 13.6242 42.5 12.6703 42.5 11.6758C42.5 10.6812 42.1049 9.72739 41.4016 9.02413C40.6984 8.32087 39.7445 7.92578 38.75 7.92578C37.7555 7.92578 36.8016 8.32087 36.0984 9.02413C35.3951 9.72739 35 10.6812 35 11.6758C35 12.6703 35.3951 13.6242 36.0984 14.3274C36.8016 15.0307 37.7555 15.4258 38.75 15.4258Z" fill="#B0B0B0"/>
</svg>
