<svg width="56" height="57" viewBox="0 0 56 57" fill="none" xmlns="http://www.w3.org/2000/svg">
<g id="Star 19" filter="url(#filter0_d_3704_13194)">
<path d="M21.6208 2.83226L32.4365 15.6607L49.058 13.3644L40.1997 27.615L47.5199 42.7134L31.2295 38.6923L19.1321 50.3199L17.9224 33.5842L3.12554 25.672L18.6684 19.3499L21.6208 2.83226Z" fill="#FFDA28"/>
<path d="M22.0031 2.50997L21.3161 1.69518L21.1286 2.74428L18.2247 18.9906L2.93715 25.2089L1.94996 25.6104L2.88977 26.1129L17.4436 33.8951L18.6334 50.356L18.7102 51.4189L19.4786 50.6804L31.3772 39.2437L47.4001 43.1988L48.4348 43.4542L47.9698 42.4953L40.7698 27.6449L49.4827 13.6284L50.0453 12.7233L48.9896 12.8691L32.6411 15.1277L22.0031 2.50997Z" stroke="#232323"/>
</g>
<defs>
<filter id="filter0_d_3704_13194" x="0.773438" y="0.558594" width="54.2578" height="55.959" filterUnits="userSpaceOnUse" color-interpolation-filters="sRGB">
<feFlood flood-opacity="0" result="BackgroundImageFix"/>
<feColorMatrix in="SourceAlpha" type="matrix" values="0 0 0 0 0 0 0 0 0 0 0 0 0 0 0 0 0 0 127 0" result="hardAlpha"/>
<feOffset dx="4" dy="4"/>
<feComposite in2="hardAlpha" operator="out"/>
<feColorMatrix type="matrix" values="0 0 0 0 0.138846 0 0 0 0 0.138846 0 0 0 0 0.138846 0 0 0 1 0"/>
<feBlend mode="normal" in2="BackgroundImageFix" result="effect1_dropShadow_3704_13194"/>
<feBlend mode="normal" in="SourceGraphic" in2="effect1_dropShadow_3704_13194" result="shape"/>
</filter>
</defs>
</svg>
